<?xml version="1.0" standalone="no"?>
<!DOCTYPE svg PUBLIC "-//W3C//DTD SVG 20010904//EN"
 "http://www.w3.org/TR/2001/REC-SVG-20010904/DTD/svg10.dtd">
<svg version="1.0" xmlns="http://www.w3.org/2000/svg"
 width="64.000000pt" height="64.000000pt" viewBox="0 0 64.000000 64.000000"
 preserveAspectRatio="xMidYMid meet">

<g transform="translate(0.000000,64.000000) scale(0.100000,-0.100000)"
fill="#000000" stroke="none">
<path d="M107 578 c-10 -5 -17 -15 -17 -23 0 -8 -13 -21 -30 -30 -33 -17 -43
-43 -38 -101 3 -36 6 -39 36 -42 l32 -3 0 -71 c0 -54 5 -79 22 -109 23 -42 85
-79 131 -79 15 0 27 -4 27 -9 0 -25 -15 -41 -37 -41 -13 0 -21 -4 -18 -10 8
-13 105 -13 105 0 0 6 -9 10 -20 10 -21 0 -24 8 -14 34 10 27 155 22 251 -9
42 -13 79 -22 81 -20 9 8 -20 73 -53 117 -56 76 -165 143 -260 160 -16 3 -21
14 -27 56 -5 29 -14 65 -22 80 -33 63 -112 111 -149 90z m72 -34 c28 -26 -21
-124 -61 -124 -10 0 -11 134 -1 143 9 9 44 -2 62 -19z m-91 -86 c-3 -49 -5
-53 -28 -53 -22 0 -25 4 -24 37 1 41 18 68 41 68 11 0 13 -12 11 -52z m44
-145 c2 -73 7 -94 27 -122 22 -30 22 -32 4 -23 -35 19 -53 73 -53 156 0 105
17 96 22 -11z m286 -55 c19 -32 16 -37 -32 -48 -60 -13 -114 -1 -137 31 l-20
28 60 0 c33 0 68 4 78 10 24 14 31 11 51 -21z m24 -109 c-8 -8 -99 14 -112 27
-5 5 8 10 31 11 22 2 48 7 57 12 14 8 18 4 24 -17 4 -15 4 -30 0 -33z"/>
<path d="M130 510 c0 -5 5 -10 10 -10 6 0 10 5 10 10 0 6 -4 10 -10 10 -5 0
-10 -4 -10 -10z"/>
</g>
</svg>
